<svg xmlns="http://www.w3.org/2000/svg" viewBox="0 0 100 165">
<defs><radialGradient id="petal"><stop stop-color="#a96a75"/><stop offset=".55" stop-color="#cd929e"/><stop offset="1" stop-color="#d4a3ac" stop-opacity=".85"/></radialGradient><g id="bloom"><g fill="url(#petal)" stroke="#b67d89" stroke-width=".35"><ellipse cy="-13" rx="6" ry="15" transform="rotate(0)"/><ellipse cy="-13" rx="6" ry="15" transform="rotate(30)"/><ellipse cy="-13" rx="6" ry="15" transform="rotate(60)"/><ellipse cy="-13" rx="6" ry="15" transform="rotate(90)"/><ellipse cy="-13" rx="6" ry="15" transform="rotate(120)"/><ellipse cy="-13" rx="6" ry="15" transform="rotate(150)"/><ellipse cy="-13" rx="6" ry="15" transform="rotate(180)"/><ellipse cy="-13" rx="6" ry="15" transform="rotate(210)"/><ellipse cy="-13" rx="6" ry="15" transform="rotate(240)"/><ellipse cy="-13" rx="6" ry="15" transform="rotate(270)"/><ellipse cy="-13" rx="6" ry="15" transform="rotate(300)"/><ellipse cy="-13" rx="6" ry="15" transform="rotate(330)"/></g><circle r="7" fill="#9b8647"/><g fill="#675c33"><circle cx="-3" cy="-2" r="1.2"/><circle cx="2" cy="-3" r="1"/><circle cx="4" cy="1" r="1.1"/><circle cx="-2" cy="4" r="1"/><circle r="1.3"/></g><g stroke="#eed8c5" stroke-width=".5"><path d="M-4-5l2 3m5-3L1-1m5 4L3 2m-4 4V3"/></g></g></defs>
<g fill="none" stroke="#7b8058" stroke-width="1.2"><path d="M32 159c50-10 39-56 26-114M76 162C47 139 52 113 77 92M58 143C33 123 34 95 20 69M57 137c24-11 29-20 31-33M51 116C28 110 29 96 26 87"/><path d="M44 113l-12-3m10-8-8-7m11 30-9 3m31-4 15-8m-24 26-13 1m20-48 1-10m-33 4-12 4" stroke-width=".7"/></g>
<g fill="#9b9b68" opacity=".85"><ellipse cx="24" cy="85" rx="2.5" ry="6" transform="rotate(-35 24 85)"/><ellipse cx="31" cy="99" rx="2.5" ry="6" transform="rotate(-45 31 99)"/><ellipse cx="39" cy="115" rx="2" ry="5" transform="rotate(40 39 115)"/><ellipse cx="78" cy="120" rx="2" ry="5" transform="rotate(40 78 120)"/><ellipse cx="85" cy="109" rx="2" ry="5" transform="rotate(28 85 109)"/><ellipse cx="61" cy="140" rx="2" ry="5" transform="rotate(65 61 140)"/><ellipse cx="19" cy="73" rx="2" ry="4"/></g><use href="#bloom" transform="translate(57 43) rotate(12)"/><use href="#bloom" transform="translate(77 94) rotate(-13) scale(.66)"/><path d="M32 159c17-1 25-6 32-15" fill="none" stroke="#80695a"/>
</svg>
